<svg xmlns="http://www.w3.org/2000/svg">
    <symbol id="close" xmlns="http://www.w3.org/2000/svg" viewBox="0 0 20 20"><path d="M10 8.586L2.929 1.515 1.515 2.929 8.586 10l-7.071 7.071 1.414 1.414L10 11.414l7.071 7.071 1.414-1.414L11.414 10l7.071-7.071-1.414-1.414L10 8.586z"/></symbol>
    <symbol id="time" xmlns="http://www.w3.org/2000/svg" viewBox="0 0 20 20"><path d="M10 20a10 10 0 1 1 0-20 10 10 0 0 1 0 20zm0-2a8 8 0 1 0 0-16 8 8 0 0 0 0 16zm-1-7.59V4h2v5.59l3.95 3.95-1.41 1.41L9 10.41z"/></symbol>
    <symbol id="phone" xmlns="http://www.w3.org/2000/svg" viewBox="0 0 20 20"><path d="M20 18.35V19a1 1 0 0 1-1 1h-2A17 17 0 0 1 0 3V1a1 1 0 0 1 1-1h4a1 1 0 0 1 1 1v4c0 .56-.31 1.31-.7 1.7L3.16 8.84c1.52 3.6 4.4 6.48 8 8l2.12-2.12c.4-.4 1.15-.71 1.7-.71H19a1 1 0 0 1 .99 1v3.35z"/></symbol>
    <symbol id="document-add" xmlns="http://www.w3.org/2000/svg" viewBox="0 0 20 20"><path d="M9 10V8h2v2h2v2h-2v2H9v-2H7v-2h2zm-5 8h12V6h-4V2H4v16zm-2 1V0h12l4 4v16H2v-1z"/></symbol>
    <symbol id="document" xmlns="http://www.w3.org/2000/svg" viewBox="0 0 20 20"><path d="M4 18h12V6h-4V2H4v16zm-2 1V0h12l4 4v16H2v-1z"/></symbol>
</svg>